<svg xmlns="http://www.w3.org/2000/svg" width="512" height="512" viewBox="0 0 512 512">
  <defs>
    <linearGradient id="skin" x1="0" x2="1" y1="0" y2="1">
      <stop offset="0%" stop-color="#fde7d9" />
      <stop offset="100%" stop-color="#f9c09d" />
    </linearGradient>
    <linearGradient id="hair" x1="0" x2="1" y1="0" y2="1">
      <stop offset="0%" stop-color="#111827" />
      <stop offset="100%" stop-color="#1f2937" />
    </linearGradient>
    <linearGradient id="background" x1="0" x2="1" y1="0" y2="1">
      <stop offset="0%" stop-color="#1e40af" />
      <stop offset="100%" stop-color="#22d3ee" />
    </linearGradient>
    <clipPath id="clipCircle">
      <circle cx="256" cy="256" r="248" />
    </clipPath>
  </defs>
  <circle cx="256" cy="256" r="248" fill="url(#background)" />
  <g clip-path="url(#clipCircle)">
    <circle cx="256" cy="200" r="120" fill="url(#hair)" />
    <ellipse cx="256" cy="340" rx="160" ry="150" fill="#1f2933" />
    <path d="M256 310c-44 0-80-36-80-80s36-92 80-92 80 48 80 92-36 80-80 80z" fill="url(#skin)" />
    <g fill="#0f172a">
      <ellipse cx="218" cy="260" rx="18" ry="22" />
      <ellipse cx="294" cy="260" rx="18" ry="22" />
    </g>
    <path d="M226 302c12 12 48 12 60 0" fill="none" stroke="#b45309" stroke-width="6" stroke-linecap="round" />
    <path d="M176 228c6-18 32-34 80-34s74 16 80 34" fill="none" stroke="#0f172a" stroke-width="10" stroke-linecap="round" />
    <path d="M110 438c34-46 90-74 146-74s112 28 146 74v160H110z" fill="#0f172a" />
    <path d="M188 446c20-18 44-28 68-28s48 10 68 28" fill="none" stroke="#38bdf8" stroke-width="14" stroke-linecap="round" />
  </g>
</svg>
