<svg xmlns="http://www.w3.org/2000/svg" width="1440" height="960" viewBox="0 0 1440 960">
  <defs>
    <linearGradient id="nodeGradient" x1="0" x2="1" y1="0" y2="1">
      <stop offset="0%" stop-color="#5eead4" stop-opacity="0.18" />
      <stop offset="100%" stop-color="#1d4ed8" stop-opacity="0.08" />
    </linearGradient>
    <radialGradient id="glow" cx="0.5" cy="0.5" r="0.5">
      <stop offset="0%" stop-color="#38bdf8" stop-opacity="0.28" />
      <stop offset="100%" stop-color="#0f172a" stop-opacity="0" />
    </radialGradient>
  </defs>
  <rect width="1440" height="960" fill="#0f172a" />
  <g stroke="#38bdf8" stroke-opacity="0.12" stroke-width="1">
    <path d="M120 160 L360 120 L540 260 L760 200 L960 320 L1180 260" />
    <path d="M80 420 L280 360 L480 440 L700 380 L920 480 L1160 420" />
    <path d="M160 680 L360 600 L560 720 L760 640 L1000 760 L1240 700" />
    <path d="M200 120 L200 360 L200 600 L200 840" />
    <path d="M520 80 L520 320 L520 560 L520 820" />
    <path d="M840 120 L840 360 L840 600 L840 820" />
    <path d="M1160 160 L1160 400 L1160 640 L1160 840" />
  </g>
  <g stroke="#60a5fa" stroke-opacity="0.18" stroke-width="1">
    <path d="M120 160 L200 360 L360 600 L520 320 L700 380 L840 600 L1000 760" />
    <path d="M360 120 L480 440 L560 720" />
    <path d="M960 320 L920 480 L1000 760" />
    <path d="M1180 260 L1160 420 L1240 700" />
  </g>
  <g fill="url(#nodeGradient)">
    <circle cx="120" cy="160" r="26" />
    <circle cx="360" cy="120" r="22" />
    <circle cx="540" cy="260" r="18" />
    <circle cx="760" cy="200" r="20" />
    <circle cx="960" cy="320" r="22" />
    <circle cx="1180" cy="260" r="24" />
    <circle cx="80" cy="420" r="16" />
    <circle cx="280" cy="360" r="18" />
    <circle cx="480" cy="440" r="16" />
    <circle cx="700" cy="380" r="18" />
    <circle cx="920" cy="480" r="20" />
    <circle cx="1160" cy="420" r="18" />
    <circle cx="160" cy="680" r="20" />
    <circle cx="360" cy="600" r="18" />
    <circle cx="560" cy="720" r="16" />
    <circle cx="760" cy="640" r="18" />
    <circle cx="1000" cy="760" r="22" />
    <circle cx="1240" cy="700" r="24" />
  </g>
  <g fill="url(#glow)">
    <circle cx="360" cy="120" r="120" />
    <circle cx="700" cy="380" r="140" />
    <circle cx="1000" cy="760" r="160" />
  </g>
</svg>
